<mxfile host="65bd71144e">
    <diagram id="q_LBWUmiz0P911Xkjv2T" name="IoT.Admin">
        <mxGraphModel dx="1084" dy="320" grid="1" gridSize="10" guides="1" tooltips="1" connect="1" arrows="1" fold="1" page="1" pageScale="1" pageWidth="827" pageHeight="1169" math="0" shadow="0">
            <root>
                <mxCell id="0"/>
                <mxCell id="1" parent="0"/>
                <mxCell id="12" value="" style="rounded=0;whiteSpace=wrap;html=1;" parent="1" vertex="1">
                    <mxGeometry x="10" y="10" width="750" height="500" as="geometry"/>
                </mxCell>
                <mxCell id="51" value="Legend" style="rounded=0;whiteSpace=wrap;html=1;fontStyle=1;verticalAlign=top;align=center;" parent="1" vertex="1">
                    <mxGeometry x="10" y="520" width="130" height="80" as="geometry"/>
                </mxCell>
                <mxCell id="3" value="&lt;b&gt;IoT.Admin.Domain&lt;/b&gt;" style="rounded=0;whiteSpace=wrap;html=1;verticalAlign=top;" parent="1" vertex="1">
                    <mxGeometry x="427.5" y="79" width="140" height="100" as="geometry"/>
                </mxCell>
                <mxCell id="4" value="Modules" style="rounded=0;whiteSpace=wrap;html=1;verticalAlign=top;" parent="1" vertex="1">
                    <mxGeometry x="437.5" y="109" width="120" height="60" as="geometry"/>
                </mxCell>
                <mxCell id="5" value="Gpio" style="rounded=0;whiteSpace=wrap;html=1;fillColor=#d5e8d4;strokeColor=#82b366;" parent="1" vertex="1">
                    <mxGeometry x="452.5" y="139" width="90" height="20" as="geometry"/>
                </mxCell>
                <mxCell id="6" value="&lt;b&gt;Raspberry Pi&lt;/b&gt;&lt;br&gt;GPIO" style="rounded=0;whiteSpace=wrap;html=1;verticalAlign=middle;" parent="1" vertex="1">
                    <mxGeometry x="607.5" y="119" width="140" height="60" as="geometry"/>
                </mxCell>
                <mxCell id="8" value="&lt;b&gt;IoT.Admin.Api&lt;/b&gt;" style="rounded=0;whiteSpace=wrap;html=1;verticalAlign=top;" parent="1" vertex="1">
                    <mxGeometry x="257.5" y="79" width="140" height="100" as="geometry"/>
                </mxCell>
                <mxCell id="9" value="Controllers" style="rounded=0;whiteSpace=wrap;html=1;verticalAlign=top;" parent="1" vertex="1">
                    <mxGeometry x="267.5" y="109" width="120" height="60" as="geometry"/>
                </mxCell>
                <mxCell id="16" style="edgeStyle=none;html=1;entryX=0;entryY=0.5;entryDx=0;entryDy=0;fontSize=13;fillColor=#d5e8d4;strokeColor=#82b366;" parent="1" source="10" target="5" edge="1">
                    <mxGeometry relative="1" as="geometry"/>
                </mxCell>
                <mxCell id="10" value="Gpio" style="rounded=0;whiteSpace=wrap;html=1;fillColor=#d5e8d4;strokeColor=#82b366;" parent="1" vertex="1">
                    <mxGeometry x="282.5" y="139" width="90" height="20" as="geometry"/>
                </mxCell>
                <mxCell id="13" value="&lt;b style=&quot;border-color: var(--border-color);&quot;&gt;Database&lt;/b&gt;&lt;b&gt;&lt;br&gt;IotAdmin&lt;/b&gt;&lt;br&gt;SQLite&lt;br&gt;MySql&lt;br&gt;MongoDb" style="shape=cylinder3;whiteSpace=wrap;html=1;boundedLbl=1;backgroundOutline=1;size=15;" parent="1" vertex="1">
                    <mxGeometry x="367.5" y="376" width="95" height="110" as="geometry"/>
                </mxCell>
                <mxCell id="19" style="edgeStyle=none;html=1;entryX=0;entryY=0.5;entryDx=0;entryDy=0;fontSize=13;exitX=1;exitY=0.5;exitDx=0;exitDy=0;fillColor=#d5e8d4;strokeColor=#82b366;" parent="1" source="5" target="6" edge="1">
                    <mxGeometry relative="1" as="geometry">
                        <Array as="points">
                            <mxPoint x="577.5" y="149"/>
                        </Array>
                    </mxGeometry>
                </mxCell>
                <mxCell id="21" value="Api Ports: Localhost | Docker" style="shape=table;startSize=30;container=1;collapsible=0;childLayout=tableLayout;fontStyle=1;align=center;fontSize=12;" parent="1" vertex="1">
                    <mxGeometry x="18.5" y="69" width="181" height="120" as="geometry"/>
                </mxCell>
                <mxCell id="22" value="" style="shape=tableRow;horizontal=0;startSize=0;swimlaneHead=0;swimlaneBody=0;top=0;left=0;bottom=0;right=0;collapsible=0;dropTarget=0;fillColor=none;points=[[0,0.5],[1,0.5]];portConstraint=eastwest;fontSize=12;" parent="21" vertex="1">
                    <mxGeometry y="30" width="181" height="30" as="geometry"/>
                </mxCell>
                <mxCell id="23" value="Development" style="shape=partialRectangle;html=1;whiteSpace=wrap;connectable=0;fillColor=none;top=0;left=0;bottom=0;right=0;overflow=hidden;fontSize=12;" parent="22" vertex="1">
                    <mxGeometry width="99" height="30" as="geometry">
                        <mxRectangle width="99" height="30" as="alternateBounds"/>
                    </mxGeometry>
                </mxCell>
                <mxCell id="24" value="5000" style="shape=partialRectangle;html=1;whiteSpace=wrap;connectable=0;fillColor=none;top=0;left=0;bottom=0;right=0;overflow=hidden;fontSize=12;" parent="22" vertex="1">
                    <mxGeometry x="99" width="41" height="30" as="geometry">
                        <mxRectangle width="41" height="30" as="alternateBounds"/>
                    </mxGeometry>
                </mxCell>
                <mxCell id="34" value="8000" style="shape=partialRectangle;html=1;whiteSpace=wrap;connectable=0;fillColor=none;top=0;left=0;bottom=0;right=0;overflow=hidden;fontSize=12;" parent="22" vertex="1">
                    <mxGeometry x="140" width="41" height="30" as="geometry">
                        <mxRectangle width="41" height="30" as="alternateBounds"/>
                    </mxGeometry>
                </mxCell>
                <mxCell id="26" value="" style="shape=tableRow;horizontal=0;startSize=0;swimlaneHead=0;swimlaneBody=0;top=0;left=0;bottom=0;right=0;collapsible=0;dropTarget=0;fillColor=none;points=[[0,0.5],[1,0.5]];portConstraint=eastwest;fontSize=12;" parent="21" vertex="1">
                    <mxGeometry y="60" width="181" height="30" as="geometry"/>
                </mxCell>
                <mxCell id="27" value="Test" style="shape=partialRectangle;html=1;whiteSpace=wrap;connectable=0;fillColor=none;top=0;left=0;bottom=0;right=0;overflow=hidden;fontSize=12;" parent="26" vertex="1">
                    <mxGeometry width="99" height="30" as="geometry">
                        <mxRectangle width="99" height="30" as="alternateBounds"/>
                    </mxGeometry>
                </mxCell>
                <mxCell id="28" value="5001" style="shape=partialRectangle;html=1;whiteSpace=wrap;connectable=0;fillColor=none;top=0;left=0;bottom=0;right=0;overflow=hidden;fontSize=12;" parent="26" vertex="1">
                    <mxGeometry x="99" width="41" height="30" as="geometry">
                        <mxRectangle width="41" height="30" as="alternateBounds"/>
                    </mxGeometry>
                </mxCell>
                <mxCell id="35" value="8001" style="shape=partialRectangle;html=1;whiteSpace=wrap;connectable=0;fillColor=none;top=0;left=0;bottom=0;right=0;overflow=hidden;fontSize=12;" parent="26" vertex="1">
                    <mxGeometry x="140" width="41" height="30" as="geometry">
                        <mxRectangle width="41" height="30" as="alternateBounds"/>
                    </mxGeometry>
                </mxCell>
                <mxCell id="30" value="" style="shape=tableRow;horizontal=0;startSize=0;swimlaneHead=0;swimlaneBody=0;top=0;left=0;bottom=0;right=0;collapsible=0;dropTarget=0;fillColor=none;points=[[0,0.5],[1,0.5]];portConstraint=eastwest;fontSize=12;" parent="21" vertex="1">
                    <mxGeometry y="90" width="181" height="30" as="geometry"/>
                </mxCell>
                <mxCell id="31" value="Production" style="shape=partialRectangle;html=1;whiteSpace=wrap;connectable=1;fillColor=none;top=0;left=0;bottom=0;right=0;overflow=hidden;fontSize=12;movable=1;resizable=1;rotatable=1;deletable=1;editable=1;" parent="30" vertex="1">
                    <mxGeometry width="99" height="30" as="geometry">
                        <mxRectangle width="99" height="30" as="alternateBounds"/>
                    </mxGeometry>
                </mxCell>
                <mxCell id="32" value="5002" style="shape=partialRectangle;html=1;whiteSpace=wrap;connectable=0;fillColor=none;top=0;left=0;bottom=0;right=0;overflow=hidden;fontSize=12;" parent="30" vertex="1">
                    <mxGeometry x="99" width="41" height="30" as="geometry">
                        <mxRectangle width="41" height="30" as="alternateBounds"/>
                    </mxGeometry>
                </mxCell>
                <mxCell id="36" value="8002" style="shape=partialRectangle;html=1;whiteSpace=wrap;connectable=0;fillColor=none;top=0;left=0;bottom=0;right=0;overflow=hidden;fontSize=12;" parent="30" vertex="1">
                    <mxGeometry x="140" width="41" height="30" as="geometry">
                        <mxRectangle width="41" height="30" as="alternateBounds"/>
                    </mxGeometry>
                </mxCell>
                <mxCell id="38" value="" style="endArrow=none;dashed=1;html=1;fontSize=12;" parent="1" edge="1">
                    <mxGeometry width="50" height="50" relative="1" as="geometry">
                        <mxPoint x="218" y="500" as="sourcePoint"/>
                        <mxPoint x="218.5" y="19" as="targetPoint"/>
                    </mxGeometry>
                </mxCell>
                <mxCell id="40" value="" style="endArrow=none;dashed=1;html=1;fontSize=12;" parent="1" edge="1">
                    <mxGeometry width="50" height="50" relative="1" as="geometry">
                        <mxPoint x="587" y="500" as="sourcePoint"/>
                        <mxPoint x="587.5" y="19" as="targetPoint"/>
                    </mxGeometry>
                </mxCell>
                <mxCell id="42" value="Clients" style="text;html=1;strokeColor=none;fillColor=none;align=center;verticalAlign=middle;whiteSpace=wrap;rounded=0;fontSize=14;fontStyle=1" parent="1" vertex="1">
                    <mxGeometry x="49.25" y="19" width="119.5" height="30" as="geometry"/>
                </mxCell>
                <mxCell id="43" value="Application" style="text;html=1;strokeColor=none;fillColor=none;align=center;verticalAlign=middle;whiteSpace=wrap;rounded=0;fontSize=14;fontStyle=1" parent="1" vertex="1">
                    <mxGeometry x="343" y="19" width="119.5" height="30" as="geometry"/>
                </mxCell>
                <mxCell id="44" value="Hardware" style="text;html=1;strokeColor=none;fillColor=none;align=center;verticalAlign=middle;whiteSpace=wrap;rounded=0;fontSize=14;fontStyle=1" parent="1" vertex="1">
                    <mxGeometry x="617.75" y="19" width="119.5" height="30" as="geometry"/>
                </mxCell>
                <mxCell id="14" style="edgeStyle=none;html=1;entryX=0.5;entryY=0;entryDx=0;entryDy=0;entryPerimeter=0;fillColor=#f8cecc;strokeColor=#b85450;exitX=1;exitY=0.5;exitDx=0;exitDy=0;" parent="1" source="8" target="13" edge="1">
                    <mxGeometry relative="1" as="geometry">
                        <mxPoint x="408.5" y="109" as="sourcePoint"/>
                        <mxPoint x="367.5" y="389" as="targetPoint"/>
                        <Array as="points">
                            <mxPoint x="415.5" y="129"/>
                        </Array>
                    </mxGeometry>
                </mxCell>
                <mxCell id="15" value="ApiLogs&lt;br&gt;WebLogs" style="edgeLabel;html=1;align=center;verticalAlign=middle;resizable=0;points=[];fontSize=12;" parent="14" vertex="1" connectable="0">
                    <mxGeometry x="-0.5" y="-2" relative="1" as="geometry">
                        <mxPoint x="4" y="168" as="offset"/>
                    </mxGeometry>
                </mxCell>
                <mxCell id="46" style="edgeStyle=none;html=1;exitX=0.5;exitY=1;exitDx=0;exitDy=0;fillColor=#d5e8d4;strokeColor=#82b366;" parent="1" edge="1">
                    <mxGeometry relative="1" as="geometry">
                        <mxPoint x="20" y="560" as="sourcePoint"/>
                        <mxPoint x="60" y="560" as="targetPoint"/>
                    </mxGeometry>
                </mxCell>
                <mxCell id="48" value="Gpio Calls" style="text;html=1;strokeColor=none;fillColor=none;align=left;verticalAlign=middle;whiteSpace=wrap;rounded=0;" parent="1" vertex="1">
                    <mxGeometry x="66" y="545" width="60" height="30" as="geometry"/>
                </mxCell>
                <mxCell id="49" style="edgeStyle=none;html=1;exitX=0.5;exitY=1;exitDx=0;exitDy=0;fillColor=#f8cecc;strokeColor=#b85450;" parent="1" edge="1">
                    <mxGeometry relative="1" as="geometry">
                        <mxPoint x="20" y="584" as="sourcePoint"/>
                        <mxPoint x="60" y="584" as="targetPoint"/>
                    </mxGeometry>
                </mxCell>
                <mxCell id="50" value="Error Logs" style="text;html=1;strokeColor=none;fillColor=none;align=left;verticalAlign=middle;whiteSpace=wrap;rounded=0;" parent="1" vertex="1">
                    <mxGeometry x="66" y="569" width="60" height="30" as="geometry"/>
                </mxCell>
                <mxCell id="52" value="Web Ports: Localhost | Docker" style="shape=table;startSize=30;container=1;collapsible=0;childLayout=tableLayout;fontStyle=1;align=center;fontSize=12;" parent="1" vertex="1">
                    <mxGeometry x="18.5" y="209" width="181" height="120" as="geometry"/>
                </mxCell>
                <mxCell id="53" value="" style="shape=tableRow;horizontal=0;startSize=0;swimlaneHead=0;swimlaneBody=0;top=0;left=0;bottom=0;right=0;collapsible=0;dropTarget=0;fillColor=none;points=[[0,0.5],[1,0.5]];portConstraint=eastwest;fontSize=12;" parent="52" vertex="1">
                    <mxGeometry y="30" width="181" height="30" as="geometry"/>
                </mxCell>
                <mxCell id="54" value="Development" style="shape=partialRectangle;html=1;whiteSpace=wrap;connectable=0;fillColor=none;top=0;left=0;bottom=0;right=0;overflow=hidden;fontSize=12;" parent="53" vertex="1">
                    <mxGeometry width="99" height="30" as="geometry">
                        <mxRectangle width="99" height="30" as="alternateBounds"/>
                    </mxGeometry>
                </mxCell>
                <mxCell id="55" value="5005" style="shape=partialRectangle;html=1;whiteSpace=wrap;connectable=0;fillColor=none;top=0;left=0;bottom=0;right=0;overflow=hidden;fontSize=12;" parent="53" vertex="1">
                    <mxGeometry x="99" width="41" height="30" as="geometry">
                        <mxRectangle width="41" height="30" as="alternateBounds"/>
                    </mxGeometry>
                </mxCell>
                <mxCell id="56" value="8005" style="shape=partialRectangle;html=1;whiteSpace=wrap;connectable=0;fillColor=none;top=0;left=0;bottom=0;right=0;overflow=hidden;fontSize=12;" parent="53" vertex="1">
                    <mxGeometry x="140" width="41" height="30" as="geometry">
                        <mxRectangle width="41" height="30" as="alternateBounds"/>
                    </mxGeometry>
                </mxCell>
                <mxCell id="57" value="" style="shape=tableRow;horizontal=0;startSize=0;swimlaneHead=0;swimlaneBody=0;top=0;left=0;bottom=0;right=0;collapsible=0;dropTarget=0;fillColor=none;points=[[0,0.5],[1,0.5]];portConstraint=eastwest;fontSize=12;" parent="52" vertex="1">
                    <mxGeometry y="60" width="181" height="30" as="geometry"/>
                </mxCell>
                <mxCell id="58" value="Test" style="shape=partialRectangle;html=1;whiteSpace=wrap;connectable=0;fillColor=none;top=0;left=0;bottom=0;right=0;overflow=hidden;fontSize=12;" parent="57" vertex="1">
                    <mxGeometry width="99" height="30" as="geometry">
                        <mxRectangle width="99" height="30" as="alternateBounds"/>
                    </mxGeometry>
                </mxCell>
                <mxCell id="59" value="5006" style="shape=partialRectangle;html=1;whiteSpace=wrap;connectable=0;fillColor=none;top=0;left=0;bottom=0;right=0;overflow=hidden;fontSize=12;" parent="57" vertex="1">
                    <mxGeometry x="99" width="41" height="30" as="geometry">
                        <mxRectangle width="41" height="30" as="alternateBounds"/>
                    </mxGeometry>
                </mxCell>
                <mxCell id="60" value="8006" style="shape=partialRectangle;html=1;whiteSpace=wrap;connectable=0;fillColor=none;top=0;left=0;bottom=0;right=0;overflow=hidden;fontSize=12;" parent="57" vertex="1">
                    <mxGeometry x="140" width="41" height="30" as="geometry">
                        <mxRectangle width="41" height="30" as="alternateBounds"/>
                    </mxGeometry>
                </mxCell>
                <mxCell id="61" value="" style="shape=tableRow;horizontal=0;startSize=0;swimlaneHead=0;swimlaneBody=0;top=0;left=0;bottom=0;right=0;collapsible=0;dropTarget=0;fillColor=none;points=[[0,0.5],[1,0.5]];portConstraint=eastwest;fontSize=12;" parent="52" vertex="1">
                    <mxGeometry y="90" width="181" height="30" as="geometry"/>
                </mxCell>
                <mxCell id="62" value="Production" style="shape=partialRectangle;html=1;whiteSpace=wrap;connectable=1;fillColor=none;top=0;left=0;bottom=0;right=0;overflow=hidden;fontSize=12;movable=1;resizable=1;rotatable=1;deletable=1;editable=1;" parent="61" vertex="1">
                    <mxGeometry width="99" height="30" as="geometry">
                        <mxRectangle width="99" height="30" as="alternateBounds"/>
                    </mxGeometry>
                </mxCell>
                <mxCell id="63" value="5007" style="shape=partialRectangle;html=1;whiteSpace=wrap;connectable=0;fillColor=none;top=0;left=0;bottom=0;right=0;overflow=hidden;fontSize=12;" parent="61" vertex="1">
                    <mxGeometry x="99" width="41" height="30" as="geometry">
                        <mxRectangle width="41" height="30" as="alternateBounds"/>
                    </mxGeometry>
                </mxCell>
                <mxCell id="64" value="8007" style="shape=partialRectangle;html=1;whiteSpace=wrap;connectable=0;fillColor=none;top=0;left=0;bottom=0;right=0;overflow=hidden;fontSize=12;" parent="61" vertex="1">
                    <mxGeometry x="140" width="41" height="30" as="geometry">
                        <mxRectangle width="41" height="30" as="alternateBounds"/>
                    </mxGeometry>
                </mxCell>
                <mxCell id="65" value="&lt;b&gt;IoT.Admin.Web&lt;/b&gt;" style="rounded=0;whiteSpace=wrap;html=1;verticalAlign=top;" parent="1" vertex="1">
                    <mxGeometry x="257.5" y="219" width="140" height="100" as="geometry"/>
                </mxCell>
                <mxCell id="70" style="edgeStyle=none;html=1;entryX=0.5;entryY=0;entryDx=0;entryDy=0;entryPerimeter=0;fillColor=#f8cecc;strokeColor=#b85450;exitX=1;exitY=0.5;exitDx=0;exitDy=0;" parent="1" source="65" target="13" edge="1">
                    <mxGeometry relative="1" as="geometry">
                        <mxPoint x="438.5" y="279" as="sourcePoint"/>
                        <Array as="points">
                            <mxPoint x="415.5" y="269"/>
                        </Array>
                    </mxGeometry>
                </mxCell>
                <mxCell id="66" value="Pages" style="rounded=0;whiteSpace=wrap;html=1;verticalAlign=top;" parent="1" vertex="1">
                    <mxGeometry x="267.5" y="249" width="120" height="60" as="geometry"/>
                </mxCell>
                <mxCell id="68" style="edgeStyle=none;html=1;entryX=0;entryY=0.5;entryDx=0;entryDy=0;fillColor=#d5e8d4;strokeColor=#82b366;" parent="1" source="67" target="10" edge="1">
                    <mxGeometry relative="1" as="geometry">
                        <mxPoint x="207.5" y="189" as="targetPoint"/>
                        <Array as="points">
                            <mxPoint x="237.5" y="289"/>
                            <mxPoint x="237.5" y="149"/>
                        </Array>
                    </mxGeometry>
                </mxCell>
                <mxCell id="67" value="Gpio" style="rounded=0;whiteSpace=wrap;html=1;fillColor=#d5e8d4;strokeColor=#82b366;" parent="1" vertex="1">
                    <mxGeometry x="282.5" y="279" width="90" height="20" as="geometry"/>
                </mxCell>
                <mxCell id="71" value="Database Ports" style="shape=table;startSize=30;container=1;collapsible=0;childLayout=tableLayout;fontStyle=1;align=center;fontSize=12;" parent="1" vertex="1">
                    <mxGeometry x="18.5" y="356" width="181" height="120" as="geometry"/>
                </mxCell>
                <mxCell id="72" value="" style="shape=tableRow;horizontal=0;startSize=0;swimlaneHead=0;swimlaneBody=0;top=0;left=0;bottom=0;right=0;collapsible=0;dropTarget=0;fillColor=none;points=[[0,0.5],[1,0.5]];portConstraint=eastwest;fontSize=12;" parent="71" vertex="1">
                    <mxGeometry y="30" width="181" height="30" as="geometry"/>
                </mxCell>
                <mxCell id="73" value="SQLite" style="shape=partialRectangle;html=1;whiteSpace=wrap;connectable=0;fillColor=none;top=0;left=0;bottom=0;right=0;overflow=hidden;fontSize=12;" parent="72" vertex="1">
                    <mxGeometry width="132" height="30" as="geometry">
                        <mxRectangle width="132" height="30" as="alternateBounds"/>
                    </mxGeometry>
                </mxCell>
                <mxCell id="74" value="3009" style="shape=partialRectangle;html=1;whiteSpace=wrap;connectable=0;fillColor=none;top=0;left=0;bottom=0;right=0;overflow=hidden;fontSize=12;" parent="72" vertex="1">
                    <mxGeometry x="132" width="49" height="30" as="geometry">
                        <mxRectangle width="49" height="30" as="alternateBounds"/>
                    </mxGeometry>
                </mxCell>
                <mxCell id="76" value="" style="shape=tableRow;horizontal=0;startSize=0;swimlaneHead=0;swimlaneBody=0;top=0;left=0;bottom=0;right=0;collapsible=0;dropTarget=0;fillColor=none;points=[[0,0.5],[1,0.5]];portConstraint=eastwest;fontSize=12;" parent="71" vertex="1">
                    <mxGeometry y="60" width="181" height="30" as="geometry"/>
                </mxCell>
                <mxCell id="77" value="MySql" style="shape=partialRectangle;html=1;whiteSpace=wrap;connectable=0;fillColor=none;top=0;left=0;bottom=0;right=0;overflow=hidden;fontSize=12;" parent="76" vertex="1">
                    <mxGeometry width="132" height="30" as="geometry">
                        <mxRectangle width="132" height="30" as="alternateBounds"/>
                    </mxGeometry>
                </mxCell>
                <mxCell id="78" value="3309" style="shape=partialRectangle;html=1;whiteSpace=wrap;connectable=0;fillColor=none;top=0;left=0;bottom=0;right=0;overflow=hidden;fontSize=12;" parent="76" vertex="1">
                    <mxGeometry x="132" width="49" height="30" as="geometry">
                        <mxRectangle width="49" height="30" as="alternateBounds"/>
                    </mxGeometry>
                </mxCell>
                <mxCell id="80" value="" style="shape=tableRow;horizontal=0;startSize=0;swimlaneHead=0;swimlaneBody=0;top=0;left=0;bottom=0;right=0;collapsible=0;dropTarget=0;fillColor=none;points=[[0,0.5],[1,0.5]];portConstraint=eastwest;fontSize=12;" parent="71" vertex="1">
                    <mxGeometry y="90" width="181" height="30" as="geometry"/>
                </mxCell>
                <mxCell id="81" value="MongoDb" style="shape=partialRectangle;html=1;whiteSpace=wrap;connectable=1;fillColor=none;top=0;left=0;bottom=0;right=0;overflow=hidden;fontSize=12;movable=1;resizable=1;rotatable=1;deletable=1;editable=1;" parent="80" vertex="1">
                    <mxGeometry width="132" height="30" as="geometry">
                        <mxRectangle width="132" height="30" as="alternateBounds"/>
                    </mxGeometry>
                </mxCell>
                <mxCell id="82" value="8009&lt;br&gt;27009" style="shape=partialRectangle;html=1;whiteSpace=wrap;connectable=0;fillColor=none;top=0;left=0;bottom=0;right=0;overflow=hidden;fontSize=12;" parent="80" vertex="1">
                    <mxGeometry x="132" width="49" height="30" as="geometry">
                        <mxRectangle width="49" height="30" as="alternateBounds"/>
                    </mxGeometry>
                </mxCell>
                <mxCell id="85" style="edgeStyle=none;html=1;entryX=0;entryY=0.5;entryDx=0;entryDy=0;" parent="1" target="65" edge="1">
                    <mxGeometry relative="1" as="geometry">
                        <mxPoint x="248.5" y="269" as="targetPoint"/>
                        <mxPoint x="200" y="269" as="sourcePoint"/>
                    </mxGeometry>
                </mxCell>
                <mxCell id="86" style="edgeStyle=none;html=1;entryX=0;entryY=0.5;entryDx=0;entryDy=0;" parent="1" target="8" edge="1">
                    <mxGeometry relative="1" as="geometry">
                        <mxPoint x="248.5" y="129" as="targetPoint"/>
                        <mxPoint x="200" y="129" as="sourcePoint"/>
                    </mxGeometry>
                </mxCell>
                <mxCell id="87" style="edgeStyle=none;html=1;entryX=0;entryY=0.5;entryDx=0;entryDy=0;entryPerimeter=0;" parent="1" source="76" target="13" edge="1">
                    <mxGeometry relative="1" as="geometry"/>
                </mxCell>
            </root>
        </mxGraphModel>
    </diagram>
</mxfile>